<svg width="49" height="10" viewBox="0 0 49 10" fill="none" xmlns="http://www.w3.org/2000/svg">
<g clip-path="url(#clip0_1419_34039)">
<path d="M6.04935 3.81374H4.45126V1.68738H3.65918V4.6052H6.84143V1.68738H6.04935V3.81374Z" fill="black"/>
<path d="M3.65918 8.3126H4.45126V6.18623H6.04935V8.3126H6.84143V5.39478H3.65918V8.3126Z" fill="black"/>
<path d="M15.809 2.63452L15.7755 2.66805V4.66346H13.7402L13.7061 4.69762V5.30624L13.7402 5.33977H15.7755V7.33581L15.809 7.36934H16.4176L16.4518 7.33581V5.10316V4.42684V2.66805L16.4176 2.63452H15.809Z" fill="black"/>
<path d="M12.409 2.63452L12.3755 2.66805V7.33581L12.409 7.36934H13.0176L13.0518 7.33581V5.10316V4.42684V2.66805L13.0176 2.63452H12.409Z" fill="black"/>
<path d="M20.8919 2.6332L19.1768 4.34771L17.4617 2.6332L17.4142 2.63257L16.9834 3.06341V3.11086L18.839 4.96645V7.32753L18.8725 7.36485H19.4818L19.5153 7.32753V4.96645L21.3702 3.11086V3.06341L20.94 2.6332H20.8919Z" fill="black"/>
<path d="M22.8119 2.63457H21.8933L21.856 2.6681V3.27671L21.8933 3.31025H22.803C23.8178 3.31025 24.5277 4.05425 24.5277 5.00134C24.5277 5.94843 23.8172 6.69244 22.803 6.69244H21.8933L21.856 6.72597V7.33459L21.8933 7.36812H22.8119C24.2619 7.36369 25.3065 6.31727 25.3065 5.00071C25.3065 3.68415 24.2619 2.63773 22.8125 2.6333L22.8119 2.63457Z" fill="black"/>
<path d="M41.1639 2.63452L41.1304 2.66805V3.27667L41.1639 3.31083H44.0406L44.0747 3.27667V2.66805L44.0406 2.63452H41.1639Z" fill="black"/>
<path d="M28.9995 3.98705C28.9995 3.20888 28.3909 2.63379 27.4438 2.63379H25.6819L25.6445 2.66732V3.27594L25.6819 3.30947H27.4438C27.9512 3.30947 28.222 3.58025 28.222 3.98578C28.222 4.39131 27.9512 4.66209 27.4438 4.66209H26.9453L26.9079 4.69562V5.30424L26.9453 5.33777H27.3761L28.8641 7.33318L28.8976 7.36671H29.7093L29.7429 7.33318L28.1872 5.20238C28.6946 4.9993 28.9989 4.52607 28.9989 3.98515L28.9995 3.98705Z" fill="black"/>
<path d="M41.1639 6.69678L41.1304 6.73094V7.33956L41.1639 7.37309H44.0406L44.0747 7.33956V6.73094L44.0406 6.69678H41.1639Z" fill="black"/>
<path d="M48.1966 2.63452H47.5874L47.5538 2.66805V6.28686L44.7803 2.66805L44.7632 2.6592V3.78216L47.4861 7.33581L47.5538 7.36934H48.1966L48.2301 7.33581V2.66805L48.1966 2.63452Z" fill="black"/>
<path d="M41.1639 4.66345L41.1304 4.69762V5.30623L41.1639 5.33976H44.0406L44.0747 5.30623V4.69762L44.0406 4.66345H41.1639Z" fill="black"/>
<path d="M29.9385 5.00187C29.9385 6.2482 30.8824 7.28386 32.1028 7.44772V6.72649C31.3113 6.56706 30.716 5.85722 30.716 5.00187C30.716 4.14651 31.3113 3.43667 32.1028 3.27724V2.55664C30.8824 2.7205 29.9385 3.75553 29.9385 5.0025V5.00187Z" fill="black"/>
<path d="M32.7798 2.55605V3.27665C33.5712 3.43608 34.1666 4.14592 34.1666 5.00128C34.1666 5.85663 33.5712 6.56647 32.7798 6.7259V7.44713C34.0002 7.28328 34.9441 6.24762 34.9441 5.00128C34.9441 3.75494 34.0002 2.71928 32.7798 2.55542V2.55605Z" fill="black"/>
<path d="M38.4352 4.69757L38.4017 4.7311V5.33972L38.4352 5.37325H39.3481V6.52342C39.0096 6.69234 38.6376 6.76004 38.2998 6.76004C37.2515 6.76004 36.4733 6.01603 36.4733 5.00125C36.4733 3.98646 37.2173 3.24246 38.2656 3.24246C38.8407 3.24246 39.4835 3.37785 39.9232 3.78338L39.9574 3.74985V2.97168C39.5177 2.63321 38.9091 2.53198 38.2663 2.53198C36.8118 2.53198 35.6958 3.64799 35.6958 5.00125C35.6958 6.3545 36.846 7.47051 38.2998 7.47051C38.9084 7.47051 39.5177 7.30159 40.0244 6.92959V4.7311L39.9909 4.69757H38.4352Z" fill="black"/>
<path d="M0.5 9.75H9.99994V0.25H0.5V9.75ZM1.28323 1.03323H9.21672V8.96677H1.28323V1.03323Z" fill="black"/>
</g>
<defs>
<clipPath id="clip0_1419_34039">
<rect width="48" height="9.5" fill="white" transform="translate(0.5 0.25)"/>
</clipPath>
</defs>
</svg>
